<mxfile host="app.diagrams.net" modified="2024-08-01T19:52:06.530Z" agent="Mozilla/5.0 (Windows NT 10.0; Win64; x64) AppleWebKit/537.36 (KHTML, like Gecko) Chrome/127.0.0.0 Safari/537.36" version="24.4.15" etag="o_OzJUabvZKjCN0ddzsy" type="github">
  <diagram name="PÃ¡gina-1" id="C4VYwhB9vNg-ayccjw14">
    <mxGraphModel>
      <root>
        <mxCell id="0" />
        <mxCell id="1" parent="0" />
      </root>
    </mxGraphModel>
  </diagram>
</mxfile>
